PathFileType	4	(X/Y/Z)	C:\Users\Admin\Desktop\Capture Files\05302019 Reflex Trials\StaticTrial_2-Unnamed.trc
DataRate	CameraRate	NumFrames	NumMarkers	Units	OrigDataRate	OrigDataStartFrame	OrigNumFrames
300.00	300.00	      25	0	mm	300.00	1242	      2482
Frame#	Time	
		

1242	4.137	579.15594	-625.01648	918.69226	818.22644	-766.45270	1021.66980	497.90976	-500.36987	874.99902	894.46161	-725.92102	1114.27002	432.87457	-313.58643	455.97272	180.16490	-512.69720	611.32568	157.69833	-528.87463	409.77618				291.43332	-499.59262	729.79504				183.07417	-589.04913	725.28461	371.07736	-426.41638	715.13733	499.79861	-365.67029	739.83142				428.85617	-328.09952	640.25397	
1243	4.140	579.16772	-625.00800	918.69440	818.20660	-766.55823	1021.68951	497.91550	-500.35132	875.00446	894.49591	-726.04645	1114.24976	432.88138	-313.62033	455.94650	180.17780	-512.68896	611.34045	157.70856	-528.89307	409.78934				291.44296	-499.60229	729.77966				183.10136	-589.05066	725.28802	371.09213	-426.39697	715.12073	499.84229	-365.65356	739.81122				428.86453	-328.13071	640.22900	
1244	4.143	579.18329	-624.96124	918.71637	818.13562	-766.60480	1021.75958	497.92746	-500.33640	875.00751	894.47803	-726.01459	1114.22131	432.86911	-313.65112	455.92764	180.16753	-512.69855	611.33295	157.70778	-528.92389	409.77936				291.46185	-499.59476	729.78864				183.11308	-589.01111	725.29578	371.11652	-426.40576	715.12042	499.84439	-365.65152	739.79114				428.88736	-328.12265	640.20691	
1245	4.147	579.19232	-624.91669	918.74005	818.11200	-766.67206	1021.78943	497.94901	-500.32120	875.02301	894.49628	-726.21222	1114.23853	432.87445	-313.67941	455.91599	180.20302	-512.70917	611.34369	157.69514	-528.93945	409.80554				291.43863	-499.54993	729.77124				183.09802	-588.98138	725.31573	371.12543	-426.39758	715.10596	499.88049	-365.63498	739.77625				428.90915	-328.12152	640.19739	
1246	4.150	579.23541	-624.91211	918.76025	818.06763	-766.70380	1021.82874	497.92892	-500.27979	875.01196	894.51685	-726.23669	1114.19238	432.87775	-313.69501	455.88989	180.19670	-512.71124	611.34393	157.71368	-528.97607	409.80133				291.46606	-499.54306	729.77039				183.12572	-588.98859	725.31818	371.14297	-426.39810	715.11023	499.86407	-365.63367	739.75409				428.90561	-328.12900	640.16803	
1247	4.153	579.22772	-624.86456	918.77271	817.97546	-766.74121	1021.89758	497.95865	-500.26987	875.01129	894.39001	-726.25018	1114.25610	432.87854	-313.74243	455.86902	180.22136	-512.69794	611.33337	157.70911	-528.96875	409.81232				291.48279	-499.54590	729.76257				183.13536	-588.99109	725.32703	371.13849	-426.38794	715.10559	499.88150	-365.62137	739.73651				428.92661	-328.12592	640.16443	
1248	4.157	579.24512	-624.83795	918.81134	817.94977	-766.82996	1021.93597	497.96097	-500.25891	875.03528	894.38043	-726.32825	1114.23035	432.88843	-313.76251	455.86264	180.23560	-512.69006	611.35944	157.72467	-529.00183	409.83459				291.48300	-499.51874	729.77161				183.13776	-588.96289	725.34772	371.15454	-426.36795	715.09967	499.88315	-365.60358	739.71967				428.93411	-328.12500	640.13776	
1249	4.160	579.23596	-624.81146	918.83600	817.83167	-766.83209	1021.98822	497.96487	-500.27054	875.02631	894.36322	-726.41443	1114.24548	432.87717	-313.77292	455.84116	180.23181	-512.66663	611.36255	157.73254	-529.05084	409.82571				291.48782	-499.50476	729.79449				183.16010	-588.94061	725.37488	371.16830	-426.37616	715.10583	499.91846	-365.60599	739.70740				428.95361	-328.13116	640.13568	
1250	4.163	579.25403	-624.81195	918.84436				497.94302	-500.23563	875.03546	894.28119	-726.41455	1114.25977	432.87421	-313.81992	455.82391	180.23758	-512.68378	611.38428	157.72702	-529.06586	409.84250	817.63989	-766.61768	1021.87000	291.48633	-499.47577	729.77966				183.15295	-588.91766	725.39618	371.18082	-426.37982	715.09955	499.93201	-365.60397	739.69971				428.96527	-328.15884	640.11902	
1251	4.167	579.24554	-624.80219	918.86102				497.96222	-500.23291	875.04755	894.28809	-726.52728	1114.25024	432.85992	-313.84204	455.80704	180.25362	-512.69556	611.38953	157.74046	-529.10077	409.86862	817.64545	-766.71130	1021.91589	291.50006	-499.45905	729.79742				183.18225	-588.91583	725.40070	371.16483	-426.34958	715.10150	499.93332	-365.60052	739.67908				428.97604	-328.15970	640.11353	
1252	4.170	579.24414	-624.75879	918.85443				497.96811	-500.21661	875.04218	894.24512	-726.54639	1114.28088	432.88702	-313.88605	455.79440	180.26973	-512.68304	611.40497	157.73409	-529.11456	409.90225	817.51898	-766.64600	1021.96759	291.52646	-499.49011	729.80548				183.17992	-588.91339	725.42908	371.19379	-426.37872	715.09918	499.95255	-365.59909	739.69159				428.98022	-328.17212	640.10400	
1253	4.173	579.22876	-624.76331	918.86475				497.96707	-500.17896	875.04553	894.17761	-726.49292	1114.32092	432.88083	-313.89761	455.79431	180.29041	-512.67401	611.41809	157.76050	-529.17334	409.89966	817.43475	-766.66919	1022.00531	291.52151	-499.43616	729.81934				183.21022	-588.91339	725.45422	371.20013	-426.36804	715.10175	499.96426	-365.60147	739.68378				428.97473	-328.15979	640.08881	
1254	4.177	579.25458	-624.76178	918.87573				497.98953	-500.17825	875.04205	894.09344	-726.55310	1114.30359	432.88477	-313.91766	455.77283	180.29556	-512.69855	611.44769	157.76755	-529.20245	409.93652	817.40338	-766.70154	1022.04608	291.54733	-499.45520	729.83313				183.21384	-588.90210	725.48352	371.19373	-426.35364	715.11224	499.95892	-365.59683	739.67731				428.97717	-328.17978	640.08990	
1255	4.180	579.23688	-624.75549	918.85138				498.00934	-500.19061	875.04236	894.00067	-726.50037	1114.32214	432.87329	-313.96378	455.77734	180.31332	-512.68738	611.44348	157.74922	-529.24493	409.95468	817.33081	-766.69122	1022.11511	291.54422	-499.41699	729.85229				183.20313	-588.84930	725.43542	371.18777	-426.33249	715.12531	499.96756	-365.57922	739.66772				428.96622	-328.17209	640.08160	
1256	4.183	579.25110	-624.76923	918.84052				498.01938	-500.16168	875.06750	893.98914	-726.55292	1114.32910	432.85278	-313.97363	455.76166	180.32939	-512.69580	611.47437	157.77058	-529.26349	409.98407	817.25195	-766.68976	1022.14172	291.56531	-499.42899	729.86554				183.21330	-588.88116	725.53168	371.19724	-426.33493	715.13037	499.95535	-365.57651	739.65497				428.97754	-328.17270	640.08936	
1257	4.187	579.26520	-624.79633	918.81842				498.03442	-500.16434	875.04785	893.97089	-726.54303	1114.32178	432.84891	-313.99707	455.75342	180.32417	-512.67670	611.48669	157.77618	-529.29242	410.00430	817.17102	-766.66388	1022.14697	291.57938	-499.42767	729.87701				183.24995	-588.87268	725.56189	371.20209	-426.32947	715.12256	499.95523	-365.57544	739.65442				428.97186	-328.18906	640.06281	
1258	4.190	579.25256	-624.76312	918.81238				498.05640	-500.15652	875.03638	893.92450	-726.50647	1114.30444	432.84186	-314.02176	455.74509	180.33827	-512.68011	611.51349	157.79630	-529.34448	410.02328	817.09991	-766.65009	1022.17535	291.62387	-499.45728	729.89691				183.25481	-588.84198	725.56537	371.18442	-426.33505	715.14569	499.95352	-365.57773	739.64978				428.95700	-328.18018	640.05145	
1259	4.193	579.28418	-624.78857	918.77612				498.08020	-500.15442	875.04279	893.90637	-726.59198	1114.27539	432.83401	-314.06171	455.74390	180.34375	-512.70325	611.52588	157.80135	-529.38226	410.03568	817.07074	-766.63434	1022.18988	291.62723	-499.39337	729.91626				183.25017	-588.81195	725.55029	371.18588	-426.32648	715.14221	499.94379	-365.55637	739.67047				428.96381	-328.17319	640.07892	
1260	4.197	579.27332	-624.76215	918.76874				498.08408	-500.13898	875.03558	893.92206	-726.58850	1114.27209	432.82791	-314.08203	455.73807	180.35670	-512.71027	611.54694	157.80568	-529.38739	410.06741	816.97974	-766.62659	1022.21033	291.64810	-499.41040	729.93219				183.26863	-588.80969	725.57843	371.17429	-426.33099	715.15759	499.94254	-365.55157	739.67572				428.94034	-328.16669	640.06458	
1261	4.200	579.29425	-624.74066	918.74951				498.09708	-500.13055	875.04730	893.90833	-726.54211	1114.26697	432.83038	-314.10675	455.74820	180.38345	-512.72235	611.55310	157.83197	-529.46741	410.08441	816.93530	-766.64044	1022.23022	291.67407	-499.41107	729.94464				183.28326	-588.80524	725.60205	371.15811	-426.31815	715.17114	499.94022	-365.55698	739.66687				428.92990	-328.19553	640.06836	
1262	4.203	579.31885	-624.77795	918.72809				498.13919	-500.14099	875.04340	893.88629	-726.56354	1114.26428	432.79443	-314.11063	455.74747	180.37753	-512.70087	611.60211	157.82765	-529.47504	410.13055	816.89459	-766.63379	1022.23694	291.71249	-499.44354	729.96429				183.28018	-588.80035	725.63257	371.16562	-426.28479	715.19293	499.93585	-365.55347	739.66827				428.91589	-328.19638	640.08118	
1263	4.207	579.34344	-624.79871	918.70062				498.14462	-500.12915	875.02405	893.93408	-726.54742	1114.23157	432.79599	-314.15063	455.75720	180.39450	-512.71490	611.58905	157.85196	-529.53229	410.13104	816.88281	-766.63971	1022.22443	291.71509	-499.41922	729.98669				183.31781	-588.79999	725.66241	371.15802	-426.31161	715.19537	499.90054	-365.54077	739.67908				428.88470	-328.20700	640.09216	
1264	4.210	579.38245	-624.80157	918.66425				498.16895	-500.13681	875.02881	893.90839	-726.51190	1114.22559	432.76389	-314.18704	455.75708	180.39348	-512.73529	611.60388	157.85027	-529.56482	410.15280	816.80011	-766.60608	1022.24451	291.71210	-499.40521	729.99854				183.30515	-588.78119	725.67249	371.13458	-426.29843	715.22144	499.90228	-365.52017	739.66748				428.87161	-328.21338	640.09052	
1265	4.213	579.41760	-624.84113	918.62195				498.18396	-500.13785	875.02509	893.94098	-726.56250	1114.19580	432.75513	-314.19739	455.76221	180.40924	-512.74335	611.63293	157.86313	-529.56787	410.17993	816.75873	-766.58240	1022.24957	291.73349	-499.39880	730.01617				183.30862	-588.76508	725.70074	371.12897	-426.30771	715.24414	499.90305	-365.51660	739.68213				428.84772	-328.21979	640.10339	
1266	4.217	579.43060	-624.79938	918.59857				498.19928	-500.14108	875.01526	893.89172	-726.58124	1114.20349	432.71686	-314.20596	455.76358	180.43192	-512.76221	611.64325	157.89093	-529.64752	410.19110	816.69855	-766.59729	1022.24713	291.76804	-499.40973	730.03564				183.33308	-588.78680	725.69940	371.12839	-426.31445	715.27106	499.88779	-365.50064	739.66278				428.81723	-328.20663	640.11023	
